<?xml version="1.0" encoding="utf-8"?>
<!-- Generator: Adobe Illustrator 25.0.1, SVG Export Plug-In . SVG Version: 6.00 Build 0)  -->
<svg version="1.1" id="Layer_1" xmlns="http://www.w3.org/2000/svg" xmlns:xlink="http://www.w3.org/1999/xlink" x="0px" y="0px"
	 viewBox="0 0 24 24" style="enable-background:new 0 0 24 24;" xml:space="preserve">
<style type="text/css">
	.st0{fill-rule:evenodd;clip-rule:evenodd;fill:#1F7C50;}
	.st1{fill:#79F14E;}
</style>
<rect class="st0" width="24" height="24"/>
<path class="st1" d="M17.6,18.9c-0.6,0-1.1-0.2-1.5-0.6l-6.7-7L9,11.7l-1.2,1.2L4.4,9.5L6,8l0.4,0.3c0,0,0.1,0.1,0.2,0.1
	c0.1,0,0.1,0,0.1-0.1C6.9,8.1,6.9,8,7.1,7.7c0.2-0.4,0.5-1.1,1.4-1.8c0.8-0.6,1.6-0.9,2.7-0.9c1.7,0,3.2,0.8,3.3,0.8L14.3,7
	c-1.1,0.1-2.9,0.5-2.1,1.3l6.8,7.2c0.4,0.4,0.6,0.9,0.6,1.5s-0.2,1.1-0.6,1.5C18.6,18.8,18.1,18.9,17.6,18.9z M11.6,11.7l5.4,5.7
	c0.3,0.3,0.8,0.3,1.1,0c0.1-0.1,0.3-0.3,0.3-0.6s-0.1-0.4-0.3-0.6l-5.4-5.7C12.8,10.7,11.6,11.7,11.6,11.7z M6.2,9.5l1.6,1.6l0,0
	c-0.1-0.4-0.1-0.8,0.3-1.1c0.2-0.2,0.5-0.3,0.8-0.3c0.4,0,0.8,0.2,1.3,0.6l0.6,0.6l1.1-1.1l-0.6-0.6c-0.8-0.8-0.6-1.4-0.5-1.8
	c0.1-0.4,0.5-0.8,1.1-1.1c-0.2,0-0.4-0.1-0.6-0.1c-0.8,0.1-1.5,0.3-2,0.6c-0.6,0.5-0.8,0.9-1,1.3C8.1,8.5,8,8.8,7.6,9.2
	C7.4,9.5,7,9.6,6.6,9.6C6.5,9.6,6.4,9.5,6.2,9.5C6.3,9.5,6.2,9.5,6.2,9.5z M14.8,9.2l2.1-2.1c0.1-0.1,0.3-0.1,0.4,0
	c0.1,0.1,0.1,0.3,0,0.4l-2.1,2.1l0.6,0.6L17.9,8c0.1-0.1,0.3-0.1,0.4,0c0.1,0.1,0.1,0.3,0,0.4l-2.1,2.1l0.6,0.7L19.1,9
	c0.3-0.4,0.5-0.9,0.5-1.4S19.4,6.6,19,6.3c-0.4-0.4-0.8-0.6-1.3-0.6c-0.5,0-0.9,0.2-1.3,0.6l-2.3,2.2C14.1,8.5,14.8,9.2,14.8,9.2z
	 M10.2,14l-2.6,2.5c-0.1,0.1-0.3,0.3-0.5,0.4l-0.3,0.1l-0.6,1.3l0.5,0.6L8,18.3l0.2-0.4c0.1-0.2,0.2-0.3,0.4-0.5l2.6-2.5L10.2,14z"
	/>
</svg>
