<?xml version="1.0" encoding="utf-8"?>
<!-- Generator: Adobe Illustrator 25.0.1, SVG Export Plug-In . SVG Version: 6.00 Build 0)  -->
<svg version="1.1" id="Layer_1" xmlns="http://www.w3.org/2000/svg" xmlns:xlink="http://www.w3.org/1999/xlink" x="0px" y="0px"
	 viewBox="0 0 24 24" style="enable-background:new 0 0 24 24;" xml:space="preserve">
<style type="text/css">
	.st0{fill-rule:evenodd;clip-rule:evenodd;fill:#1F7C50;}
	.st1{fill:#79F14E;}
</style>
<rect class="st0" width="24" height="24"/>
<path class="st1" d="M11.5,17.6c-0.1,0.2-0.4,0.3-0.6,0.3c-0.1,0-0.3-0.1-0.4-0.1c-0.3-0.2-0.4-0.7-0.1-1l0.8-1.1
	c0.2-0.3,0.7-0.4,1-0.1c0.3,0.2,0.4,0.7,0.1,1C12.3,16.5,11.5,17.6,11.5,17.6z M10.9,15.5c0.2-0.3,0.1-0.7-0.1-1
	c-0.3-0.2-0.7-0.1-1,0.1l-0.8,1c-0.2,0.3-0.1,0.7,0.1,1s0.7,0.1,1-0.1L10.9,15.5z M9.5,14.5c0.2-0.3,0.1-0.7-0.1-1
	c-0.3-0.2-0.7-0.1-1,0.1l-0.8,1c-0.2,0.3-0.1,0.7,0.1,1c0.3,0.2,0.7,0.1,1-0.1L9.5,14.5z M8.1,13.5c0.2-0.3,0.1-0.7-0.1-1
	c-0.3-0.2-0.7-0.1-1,0.1l-0.8,1.1c-0.2,0.3-0.1,0.7,0.1,1c0.3,0.2,0.7,0.1,1-0.1C7.3,14.5,8.1,13.5,8.1,13.5z M20.8,7.2
	c0,0-1.2,0.2-2,0.4c-1.5,0.2-3-0.3-4.7-1.2c-0.3-0.1-0.7-0.3-1-0.3c-0.4,0-0.7,0.1-1,0.4c-1,1.1-1.6,2.1-2.8,2.9
	c-0.6,0.4,0.1,1.4,1.4,1c0.7-0.2,1.3-0.7,2-1.2c0.6-0.4,0.9-0.4,1.4,0.1c0.9,0.9,4,4,4,4c1-0.6,1.8-1,2.7-1.3V7.2L20.8,7.2z
	 M13.1,16.6c-0.1,0.4-0.4,0.7-0.7,1.1c0.2,0.1,0.4,0.2,0.7,0.2c0.5,0,0.9-0.5,0.4-1L13.1,16.6z M17.9,14c-0.8-0.8-3.5-3.5-4.3-4.2
	c-0.1-0.1-0.3-0.1-0.4,0c-0.4,0.4-1.5,1.1-2.1,1.3c-1.3,0.4-2.3-0.1-2.5-1c-0.2-0.5,0-1,0.4-1.3c0.7-0.4,1.3-1,1.8-1.8
	c-0.5-0.4-1-0.5-1.5-0.5c-1.3,0-2.4,1-3.9,0.9c-1,0-2.3-0.2-2.3-0.2v4.6C4.3,12,5,12.1,6,12.7l0.4-0.4c0.3-0.4,0.7-0.6,1.2-0.6
	c0.7,0,1.2,0.4,1.4,1c0.7,0,1.3,0.4,1.4,1c0.6,0,1.2,0.4,1.4,1c0.9,0,1.5,0.7,1.5,1.5l0.9,0.9c0.3,0.3,0.7,0.3,1,0
	c0.3-0.3,0.3-0.7,0-1l-1.3-1.3c-0.1-0.1,0.1-0.4,0.2-0.2l1.5,1.5c0.3,0.3,0.7,0.3,1,0c0.2-0.3,0.3-0.7,0-1l-1.8-1.8
	c-0.1-0.1,0.1-0.4,0.2-0.2l2,2c0.3,0.3,0.7,0.3,1,0C18.1,14.7,18.1,14.3,17.9,14z"/>
</svg>
