<?xml version="1.0" encoding="utf-8"?>
<!-- Generator: Adobe Illustrator 25.0.1, SVG Export Plug-In . SVG Version: 6.00 Build 0)  -->
<svg version="1.1" id="Layer_1" xmlns="http://www.w3.org/2000/svg" xmlns:xlink="http://www.w3.org/1999/xlink" x="0px" y="0px"
	 viewBox="0 0 24 24" style="enable-background:new 0 0 24 24;" xml:space="preserve">
<style type="text/css">
	.st0{fill-rule:evenodd;clip-rule:evenodd;fill:#1F7C50;}
	.st1{fill-rule:evenodd;clip-rule:evenodd;fill:#79F14E;}
</style>
<rect class="st0" width="24" height="24"/>
<path class="st1" d="M4.7,19.3H4V18h0.7v-6h2.7v-2h1.3v2H10v-2h1.3v2h1.3v-2H14v2h1.3v-2h1.3v2h2.7v6H20v1.3H4.7z M18,14.7H6V18h1.3
	v-2c0-0.4,0.3-0.7,0.7-0.7c0.4,0,0.7,0.3,0.7,0.7v2H10v-2c0-0.4,0.3-0.7,0.7-0.7s0.7,0.3,0.7,0.7v2h1.3v-2c0-0.4,0.3-0.7,0.7-0.7
	S14,15.6,14,16v2h1.3v-2c0-0.4,0.3-0.7,0.7-0.7c0.4,0,0.7,0.3,0.7,0.7v2H18V14.7z M14,4.7h-2v0.7c2,0,4.1,1.3,4.7,4H7.3
	c0.3-2.5,2.4-3.9,4-4v-2H14V4.7z"/>
</svg>
