<?xml version="1.0" encoding="utf-8"?>
<!-- Generator: Adobe Illustrator 25.0.1, SVG Export Plug-In . SVG Version: 6.00 Build 0)  -->
<svg version="1.1" id="Layer_1" xmlns="http://www.w3.org/2000/svg" xmlns:xlink="http://www.w3.org/1999/xlink" x="0px" y="0px"
	 viewBox="0 0 360 360" style="enable-background:new 0 0 360 360;" xml:space="preserve">
<style type="text/css">
	.st0{fill:none;stroke:#48E47D;stroke-width:6;stroke-linecap:round;stroke-miterlimit:10;}
	.st1{fill:none;stroke:#34AB72;stroke-width:8;stroke-linecap:round;stroke-miterlimit:10;}
	.st2{fill-rule:evenodd;clip-rule:evenodd;fill:#34AB72;}
	.st3{fill:#34AB72;}
	.st4{font-family:'Roboto-Medium';}
	.st5{font-size:24px;}
</style>
<line class="st0" x1="180" y1="64.5" x2="255.2" y2="64.5"/>
<line class="st0" x1="106.1" y1="160.3" x2="181.4" y2="160.3"/>
<line class="st0" x1="180" y1="256.2" x2="255.2" y2="256.2"/>
<line class="st1" x1="180" y1="27.3" x2="180" y2="301.6"/>
<path class="st2" d="M290.6,84.4l-2.6,1.7c-0.3,0.3-0.8,0.5-1.4,0.5h-2c-0.5,0-1-0.2-1.4-0.5l-2.6-1.7H290.6z M290.7,80
	c0.6,0,1.1,0.5,1.1,1.1c0,0.6-0.5,1.1-1.1,1.1h-10.1c-0.6,0-1.1-0.5-1.1-1.1c0-0.6,0.5-1.1,1.1-1.1H290.7z M291.8,77.7h-12.4
	c0-8.8-7.1-12.6-7.1-20.5c0-8.3,6.7-12.8,13.3-12.8c6.7,0,13.3,4.6,13.3,12.8C298.9,65.2,291.8,68.8,291.8,77.7 M302.8,61.7l6,2.7
	l-1.8,4l-5.8-2.6C301.9,64.5,302.4,63.1,302.8,61.7 M268.4,61.7c0.4,1.5,0.9,2.8,1.6,4.2l-5.8,2.6l-1.8-4
	C262.4,64.4,268.4,61.7,268.4,61.7z M303,53.3h7.1v4.4h-6.7C303.4,56.3,303.3,54.8,303,53.3 M268.3,53.3c-0.3,1.5-0.5,2.9-0.4,4.4v0
	h-6.7v-4.4H268.3z M299,45.7l5.5-3.9l2.6,3.6l-5.6,3.9C300.9,48.1,300.1,46.8,299,45.7 M272.2,45.7c-1,1.1-1.9,2.3-2.5,3.7l-5.6-3.9
	l2.6-3.6L272.2,45.7z M291.9,41.1l2.9-6l4,2l-2.9,6C294.6,42.2,293.3,41.5,291.9,41.1 M279.3,41c-1.4,0.5-2.7,1.1-4,2l-2.9-6l4-2
	C276.4,35.1,279.3,41,279.3,41z M287.8,40.1c-1.5-0.2-2.9-0.2-4.4,0v-6.8h4.4V40.1z"/>
<path class="st3" d="M90.7,171.6h-2.6c0-4,0.2-4.6-2.3-5.1c-3.7-0.9-7.2-1.7-8.5-4.4c-0.5-1-0.8-2.7,0.4-4.9c2.6-5,3.3-9.2,1.8-11.7
	c-1.7-2.9-7-2.9-8.7,0c-1.5,2.5-0.8,6.7,1.8,11.6c1.2,2.2,0.9,3.9,0.4,4.9c-1.3,2.8-4.7,3.6-8.4,4.4c-2.5,0.6-2.4,1.1-2.4,5.1h-2.6
	l0-1.6c0-3.2,0.3-5.1,4.1-6c4.3-1,8.6-1.9,6.5-5.7c-6.1-11.2-1.7-17.6,4.8-17.6c6.4,0,10.9,6.1,4.8,17.6c-2,3.8,2.1,4.7,6.5,5.7
	c3.8,0.9,4.1,2.8,4.1,6L90.7,171.6z M103.1,165.9c-3.3-0.8-6.4-1.4-4.9-4.3c4.6-8.6,1.2-13.2-3.6-13.2c-3.3,0-5.8,2.1-5.8,6
	c0,3.3,1.5,5.6,2.3,7.5h2.7c-0.4-1.9-3.8-6.6-2-9.6c1.1-1.8,4.4-1.8,5.4,0c1,1.6,0.5,4.7-1.4,8.1c-1,1.9-0.7,3.3-0.3,4.2
	c0.8,1.7,2.5,2.5,4.5,3.1c3.9,1.1,3.5,0.1,3.5,3.8h2.6l0-1.2C106.1,168,105.9,166.6,103.1,165.9z M44.4,171.6H47
	c0-3.7-0.4-2.7,3.5-3.8c2-0.6,3.7-1.4,4.5-3.1c0.4-0.9,0.7-2.4-0.3-4.2c-1.8-3.5-2.4-6.5-1.4-8.1c1.1-1.8,4.4-1.8,5.4,0
	c1.8,3-1.5,7.7-2,9.6h2.7c0.8-1.9,2.3-4.3,2.3-7.5c0-3.9-2.5-6-5.8-6c-4.8,0-8.2,4.6-3.6,13.2c1.5,2.8-1.6,3.5-4.9,4.3
	c-2.9,0.7-3.1,2.1-3.1,4.5C44.4,170.4,44.4,171.6,44.4,171.6z"/>
<path class="st2" d="M284.6,255.9v25.3l-22.2-11.8v-25C262.4,244.4,284.6,255.9,284.6,255.9z M308.9,269.4l-22.2,11.8v-25.3
	l22.2-11.4C308.9,244.5,308.9,269.4,308.9,269.4z M273.2,237.3l22.4,11.7l-10,5.1l-22.1-11.5C263.5,242.6,273.2,237.3,273.2,237.3z
	 M307.8,242.7l-9.8,5.1l-22.5-11.7l10.2-5.6C285.6,230.5,307.8,242.7,307.8,242.7z"/>
<text transform="matrix(1 0 0 1 7.7797 192.6543)" class="st3 st4 st5">ADVISEMENT</text>
<text transform="matrix(1 0 0 1 224.8296 303.3949)" class="st3 st4 st5">SHIPMENT</text>
<text transform="matrix(1 0 0 1 236.882 108.6849)" class="st3 st4 st5">IDEATION</text>
</svg>
