<?xml version="1.0" encoding="utf-8"?>
<!-- Generator: Adobe Illustrator 25.0.1, SVG Export Plug-In . SVG Version: 6.00 Build 0)  -->
<svg version="1.1" id="Layer_1" xmlns="http://www.w3.org/2000/svg" xmlns:xlink="http://www.w3.org/1999/xlink" x="0px" y="0px"
	 viewBox="0 0 360 360" style="enable-background:new 0 0 360 360;" xml:space="preserve">
<style type="text/css">
	.st0{fill:#34AB72;}
	.st1{fill:none;stroke:#34AB72;stroke-width:3;stroke-linecap:round;stroke-miterlimit:10;}
</style>
<path class="st0" d="M197.9,47.4c-8.1-1.9-15.6-3.5-12-10.4c11.1-21,2.9-32.2-8.8-32.2c-11.9,0-19.9,11.6-8.8,32.2
	c3.8,6.9-4.1,8.6-12,10.4c-7.2,1.7-7.5,5.3-7.5,11.5l0,2.4h56.4l0-2.3C205.4,52.7,205.1,49.1,197.9,47.4z"/>
<path class="st0" d="M68.7,289.9c-2.6,0-5-1-6.8-2.8l-31.6-33.3l-1.8,1.9l-5.7,5.7L6.9,245.7l7.5-7.5l2,1.4c0.1,0,0.5,0.3,0.9,0.3
	c0.2,0,0.4,0,0.6-0.3c0.6-0.6,0.9-1.4,1.4-2.5c1-2.3,2.3-5.4,6.5-8.5c3.5-2.7,7.9-4,13-4c8.1,0,15.2,3.5,15.5,3.6l-1,5.6
	c-4.9,0.5-13.6,2.3-9.9,6l32.1,33.8c1.8,1.8,2.8,4.2,2.8,6.8c0,2.6-1,5-2.8,6.8C73.7,288.9,71.3,289.9,68.7,289.9z M40.9,256.1
	l25.2,26.8c1.3,1.3,3.8,1.4,5.2,0c0.7-0.7,1.1-1.6,1.1-2.6s-0.4-1.9-1.1-2.6l-25.2-26.8C46.2,250.8,40.9,256.1,40.9,256.1z
	 M15.3,245.7l7.4,7.4l0.1-0.1c-0.4-1.7-0.2-3.6,1.6-5.4c1-1,2.3-1.6,3.7-1.6c1.9,0,3.9,1,6,3.1l2.7,2.7l5.3-5.3l-2.7-2.7
	c-3.5-3.5-3.1-6.7-2.5-8.3c0.7-2.1,2.4-3.7,4.9-5c-0.9-0.1-1.9-0.2-2.9-0.2c-3.8,0-6.9,0.9-9.4,2.8c-2.9,2.2-3.7,4.1-4.6,6.1
	c-0.6,1.5-1.3,3-2.7,4.4c-1.3,1.3-3,2.1-4.8,2.1c-0.7,0-1.3-0.1-1.9-0.2C15.5,245.6,15.3,245.7,15.3,245.7z M55.7,243.8l9.9-9.8
	c0.5-0.5,1.3-0.5,1.8,0c0.5,0.5,0.5,1.3,0,1.8l-10,9.9l2.6,2.7l10-9.9c0.5-0.5,1.3-0.5,1.8,0c0.5,0.5,0.5,1.3,0,1.8l-10.1,10l3,3.2
	l11-10.8c1.7-1.7,2.6-4,2.6-6.3c0-2.3-0.9-4.6-2.6-6.3c-1.7-1.7-4-2.6-6.3-2.6c-2.3,0-4.6,0.9-6.3,2.6l-10.6,10.5
	C52.6,240.5,55.7,243.8,55.7,243.8z M34.2,266.6l-12.3,11.9c-0.7,0.7-1.5,1.2-2.4,1.7l-1.7,0.9l-3.1,6.4l2.5,2.5l6.3-3.2l0.9-1.7
	c0.4-0.9,1-1.6,1.7-2.3l12.2-11.8L34.2,266.6z"/>
<path class="st0" d="M191.7,239.9c-0.9-0.9-0.8-2.3,0.1-3.2l9.1-8.8c0.4-0.4,1-0.6,1.6-0.6c0.6,0,1.2,0.2,1.6,0.7
	C204,227.9,191.7,239.9,191.7,239.9z M176.7,262.4c-0.2,0.2-0.3,0.4-0.3,0.7c0,0.5,0.4,0.9,0.9,0.9c0.2,0,0.5-0.1,0.6-0.3l1.5-1.5
	l-1.3-1.3L176.7,262.4z M189.6,245.2l-5.2,5.1c-2.8,2.7-4.3,5.4-5.6,9.1l2.3,2.4c3.7-1.2,6.4-2.6,9.2-5.3l5.2-5.1
	C195.6,251.3,189.6,245.2,189.6,245.2z M204.9,229.5l-13.5,13.1l6.8,7l13.5-13.1c1-1,1.5-2.2,1.5-3.5
	C213.2,228.7,208,226.5,204.9,229.5z M173.8,261.4h-10.5v2.6h10.5V261.4z M197.4,257.8v5c0,10.8-15.8,6.5-15.8,6.5s4,15.8-6.9,15.8
	h-19.4v-52.6h33.2l5.4-5.3h-43.9v63.1h26.8c8.3,0,25.8-19,25.8-25.3v-12.3C202.7,252.7,197.4,257.8,197.4,257.8z"/>
<path class="st0" d="M309.5,281.5c-0.6,0.8-1.5,1.2-2.4,1.2c-0.6,0-1.2-0.2-1.8-0.6c-1.3-1-1.6-2.9-0.6-4.2l3.4-4.7
	c1-1.3,2.9-1.6,4.2-0.6c1.3,1,1.6,2.9,0.6,4.2C312.9,276.9,309.5,281.5,309.5,281.5z M306.9,272.4c1-1.3,0.7-3.2-0.6-4.2
	c-1.3-1-3.2-0.7-4.2,0.6l-3.4,4.6c-1,1.3-0.7,3.2,0.6,4.2c1.3,1,3.2,0.7,4.2-0.6L306.9,272.4z M300.8,268c1-1.3,0.7-3.2-0.6-4.2
	c-1.3-1-3.2-0.7-4.2,0.6l-3.5,4.7c-1,1.3-0.7,3.2,0.7,4.2c1.3,1,3.2,0.7,4.2-0.6L300.8,268z M294.7,263.6c1-1.3,0.7-3.2-0.6-4.2
	c-1.3-1-3.2-0.7-4.2,0.6l-3.4,4.6c-1,1.3-0.7,3.2,0.6,4.2s3.2,0.7,4.2-0.6C291.3,268.2,294.7,263.6,294.7,263.6z M350,236.6
	c0,0-5,1-8.5,1.5c-6.9,1.1-13.3-1.3-20.4-5c-1.4-0.7-3.1-1.5-4.7-1.5c-1.5,0-2.9,0.7-4.1,2c-4.4,4.9-6.9,9.3-12.1,12.4
	c-2.6,1.5,0.4,6.2,6,4.3c2.8-1,5.6-2.9,8.7-5.4c2.4-2,3.9-1.7,6,0.4c4,4,17.3,17.1,17.3,17.1c4.2-2.6,7.7-4.2,11.9-5.7L350,236.6
	L350,236.6z M316.4,277.1c-0.5,1.5-2,3.2-3,4.7c1,0.8,1.9,1.1,2.8,1.1c2.3,0,3.8-2.1,1.7-4.2C317.9,278.6,316.4,277.1,316.4,277.1z
	 M337.2,266c-3.4-3.4-15.1-14.9-18.6-18.3c-0.5-0.5-1.3-0.6-1.9-0.1c-2,1.5-6.7,4.8-9.4,5.7c-5.4,1.9-10-0.7-10.9-4.3
	c-0.6-2.3,0.3-4.5,2.3-5.7c3.2-1.9,5.3-4.4,7.9-7.6c-2.2-1.7-4.3-2.3-6.4-2.3c-5.5,0-10.6,4.4-17.1,3.9c-4.4-0.3-9.8-1.3-9.8-1.3
	v20.3c4.7,1,7.9,1.5,12.5,3.8l1.5-2c1.2-1.6,3-2.5,5-2.5c2.8,0,5.2,1.8,6,4.4c3,0,5.3,1.9,6.1,4.4c2.6-0.1,5.3,1.7,6.1,4.4
	c3.7,0,6.5,2.9,6.3,6.4l3.7,3.7c1.2,1.2,3.1,1.2,4.3,0c1.2-1.2,1.2-3.1,0-4.3l-5.4-5.4c-0.7-0.7,0.4-1.8,1.1-1.1l6.5,6.5
	c1.2,1.2,3.1,1.2,4.3,0s1.2-3.1,0-4.3l-8-8c-0.7-0.7,0.4-1.8,1.1-1.1l8.6,8.6c1.2,1.2,3.1,1.2,4.3,0
	C338.3,269,338.3,267.2,337.2,266z"/>
<g>
	<line class="st1" x1="177.2" y1="66.3" x2="177.2" y2="192.4"/>
	<line class="st1" x1="72.4" y1="192.4" x2="282" y2="192.4"/>
	<path class="st1" d="M42.7,217.7c0-14,13.3-25.3,29.7-25.3"/>
	<path class="st1" d="M311.7,217.7c0-14-13.3-25.3-29.7-25.3"/>
	<line class="st1" x1="177.2" y1="217.7" x2="177.2" y2="192.4"/>
</g>
</svg>
