<?xml version="1.0" encoding="utf-8"?>
<!-- Generator: Adobe Illustrator 25.0.1, SVG Export Plug-In . SVG Version: 6.00 Build 0)  -->
<svg version="1.1" id="Layer_1" xmlns="http://www.w3.org/2000/svg" xmlns:xlink="http://www.w3.org/1999/xlink" x="0px" y="0px"
	 viewBox="0 0 360 360" style="enable-background:new 0 0 360 360;" xml:space="preserve">
<style type="text/css">
	.st0{fill:#061F13;}
	.st1{fill:#2E9A66;}
	.st2{fill:none;stroke:#2E9A66;stroke-width:4;stroke-linecap:round;stroke-miterlimit:10;}
</style>
<rect x="-0.4" class="st0" width="360.8" height="360"/>
<path class="st1" d="M232.2,91.6L213.9,97l-5.4-18.3l7.9,4.3c3.3-5.9,5.3-12.6,5.3-19.8c0-16.5-10-30.8-24.2-37l2.8-8.6
	c17.9,7.4,30.4,25.1,30.4,45.6c0,8.8-2.3,17-6.4,24.1C224.3,87.4,232.2,91.6,232.2,91.6z M181.3,103.7c-15,0-28-8.2-35-20.3l7.9-4.6
	l-18.4-4.9l-4.9,18.4l7.6-4.4c8.5,14.8,24.5,24.8,42.8,24.8c9.9,0,19.1-2.9,26.8-7.9l-5.6-7.1C196.4,101.4,189.1,103.7,181.3,103.7z
	 M140.9,63.8l0-0.6c0-20.8,15.8-37.9,36-40.1l0,8.7l13.5-13.5L176.8,4.8l0,9.2c-25.2,2.3-45,23.4-45,49.2l0.1,1.8
	C132,65.1,140.9,63.8,140.9,63.8z M183.4,56.1c-0.1-0.1,0.6-0.2,0.8-0.2C184.3,55.9,183.8,56.7,183.4,56.1z M179.4,50.3l0.2-0.1
	l-0.1,0.3l0,0.6l-0.3,0.2l0.5,0.2l-0.6,0.3c0.2,0.3,1.5-0.4,1.3-0.3c0.4-0.2,0.1-0.2-0.2-0.4c-0.1-0.4-0.1-1-0.4-1.3l0.2-0.2
	C179.7,49.1,179.4,50.3,179.4,50.3z M203.8,63.2c0,12.4-10.1,22.5-22.5,22.5c-12.4,0-22.5-10.1-22.5-22.5s10.1-22.5,22.5-22.5
	C193.7,40.8,203.8,50.8,203.8,63.2z M188.2,53.2c0-0.3-0.4-0.5-0.7-0.1l-0.3,1c-0.2,0.3,1.1,0.6,1.1,0.3c0-0.5,1.4-0.1,1.6,0
	c0.5,0.1,1.2-0.4,0.4-0.7c-0.7-0.2-1-0.5-1.1-1l0.2-0.3C188.9,52.5,188.2,53.9,188.2,53.2z M200,63.2c0-1.9-0.3-3.9-0.7-4.9
	c-0.1-0.3-0.4-0.6-0.7-0.7c-0.5-0.2-2.5,1.1-2.8,0.5l-1.1,0c-0.2-0.1-0.8-1-1.1-0.9c-0.6,0.2,0.9,1.8,1.3,2c0.4-0.3,1.6-0.9,1.9-0.1
	c0.5,1.5-1.4,3.2-2.3,4c-1.4,1.3-1.2-0.8-2.1-1.6l-1-1.5c-0.2-0.1-1.3-1.4-1.3-1.5l0,0.3c-0.2,0.1-0.6-0.5-0.6-0.6
	c0,0.6,0.9,1.4,1.2,1.9c0.5,0.8,0.8,1.9,1.4,2.5c0.3,0.3,1.6,1.7,1.9,1.7l1.7-0.8c1.2,0.3-2.8,6-3.2,6.7c-0.3,0.6,0.3,2.1,0.2,2.8
	c-0.1,0.8-0.7,1.1-1.3,1.5l-1,1.7c-1,0.6-1.7,2.5-3,2.5c-0.4,0-2.1,0.7-2.4,0l-0.7-1.3l-0.3-1.4c-0.2-0.3-0.9-0.9-1-1.3
	c0-0.3,0.2-1.2,0.5-1.3c0.4-0.2,0.1-0.9,0-1.2c-0.1-0.7-0.5-1.2-1-1.6c-0.7-0.6-0.4-1-0.2-1.8c0-0.4-0.2-0.9-0.7-0.7
	c-1.1,0.3-0.7-0.8-1.5-0.8c-0.6,0-1,0.4-1.5,0.5c-0.6,0.2-1.3-0.2-2-0.2c-2.6-0.3-3.5-3.3-2.8-5.5l-0.1-1.3c0.3-0.7,0.9-1.4,1.4-1.9
	l1-0.4l1.1-1.5c0.8-0.6,1.8-0.6,2.7-0.7c0.5-0.1,2.5-0.5,2.8-0.1c0,0.1,0.4,1.1,0,1.1c0.8,0,2,1.4,2.7,1.1c0.4-0.2,0.3-1.4,1.1-0.8
	c0.5,0.4,2.7,0.5,3.1,0.1c0.3-0.2,0.4-1.7,0.1-1.9c0.2,0.2-1.1,0.2-1.3,0.2l-0.8,0c0.2,0.1-1.2-0.7-0.4-1.2l-1,0.2l-0.2,0.5
	c-0.6,0.3-1-1-1.2-1.1c-0.2-0.1-1.9-1.3-1.4-0.6l1.5,1.5c-0.1,0-0.4-0.5-0.4-0.1c0.1-0.3,0,1.1-0.2,0.7l0-0.5l-0.5-0.4
	c-0.2-0.3-0.9-0.9-1.2-1.1c-0.1,0-1.4,0.2-1.5,0.2l-0.3,0.6l-0.8,0.4l-0.3,0.7l-1.4,0.6c0.1-0.1-0.9-0.3-0.8-0.6
	c0.1-0.3,0.4-1.3,0.3-1.6c-0.1-0.4,2,0.5,2.2-0.4c0.1-0.4,0.1-0.9-0.6-1c0.1,0,1.3-0.5,1.5-0.7c0.3-0.3,0.9-0.8,1.4-0.8
	c0.5,0,0.4-0.8,0.7-1.1l0.2,0.9c0-0.2,0.8,0.1,0.9,0.1c0.2-0.1,1.3,0,1.1-0.6c-0.2-0.5,0.1-0.4,0.3-0.5c0,0,0.6-1.2,0.8-0.8
	c-0.1-0.4-0.8,0.1-1,0.1c-0.6,0-0.3-1-0.1-1.2c0.2-0.2-0.5-0.5-0.5-0.1c0,0.6-0.6,1.2-0.5,2c0.2,1.2-1.4-0.3-1.5-0.2
	c-0.5,0.3-1-0.4-0.7-0.8L183,48c0.2-0.3,0.4-0.7,0.7-1c1-0.8,1.3-0.2,2.3-0.1c1,0.1,0.3,0.2,0.2,0.6c-0.1,0.4,0.5,0.5,0.8,0.2
	l0.6-0.9c0.2-0.4,1.7-0.4,0.6-1c-0.7-0.4-3.8-1.3-5.8-1.3c-0.4,0-0.8,0.5-1.1,0.8c-0.7,0.6-2.4,1.6-3.3,1.3c-1-0.3-3.1,1.2-3.4,1.2
	c-0.1,0,0-1.2,0.7-1.3c-0.3,0,2.3-1.3,2.3-1.6c-0.1-0.3-5.2,1.5-5,1.9c0.1,0.2,0.6,0.2,0,0.6c-0.3,0.2-0.7,1.5-1,1.5
	c-0.9,0.4-1-0.8-2.1,0.8l-1.7,0.7c-2.5,2.6-4.2,6-4.8,9.7l0.7,0.5c0.2,0.3,0.2,1.3,0.3,1.7c0.3,0.9,0.9,1.4,1.4,2.2
	c0.3,0.5,0.8,1.7,0.6,2.2c0.2-0.3,2,1.5,2.3,1.9c0.8,0.9,1.4,2,0.1,2.9c-0.4,0.3,0.6,2.1,0.1,2.6l-0.7,0.2c-0.7,0.4-0.4,1.4,0,1.8
	c3.4,3.6,8.2,5.8,13.5,5.8C191.6,81.9,200,73.6,200,63.2z M178.5,51.3c0.2-0.1,0.5-0.1,0.6-0.4l0.1-0.2l-0.2-0.3l-0.3,0.2l-0.1,0
	l-0.1,0.2l0,0.1l-0.2,0.2C178.3,51.2,178.5,51.3,178.5,51.3z"/>
<line class="st2" x1="180" y1="123.1" x2="180" y2="295.2"/>
<line class="st2" x1="61.9" y1="265.4" x2="297.4" y2="265.4"/>
<path class="st2" d="M29.5,295.2c0-16.5,14.5-29.8,32.4-29.8"/>
<path class="st2" d="M329.7,295.2c0-16.5-14.5-29.8-32.4-29.8"/>
<path class="st1" d="M44,331.9c-5.6-1.3-10.9-2.4-8.4-7.3c7.8-14.6,2.1-22.5-6.1-22.5c-8.3,0-13.9,8.1-6.1,22.5
	c2.6,4.8-2.8,6-8.4,7.3c-5,1.2-5.2,3.7-5.2,8.1l0,1.6h39.4l0-1.6C49.2,335.6,49.1,333.1,44,331.9z"/>
<path class="st1" d="M193.6,331.9c-5.6-1.3-10.9-2.4-8.4-7.3c7.8-14.6,2.1-22.5-6.1-22.5c-8.3,0-13.9,8.1-6.1,22.5
	c2.6,4.8-2.8,6-8.4,7.3c-5,1.2-5.2,3.7-5.2,8.1l0,1.6h39.4l0-1.6C198.9,335.6,198.7,333.1,193.6,331.9z"/>
<path class="st1" d="M344.2,331.9c-5.6-1.3-10.9-2.4-8.4-7.3c7.8-14.6,2.1-22.5-6.1-22.5c-8.3,0-13.9,8.1-6.1,22.5
	c2.6,4.8-2.8,6-8.4,7.3c-5,1.2-5.2,3.7-5.2,8.1l0,1.6h39.4l0-1.6C349.4,335.6,349.3,333.1,344.2,331.9z"/>
</svg>
