<?xml version="1.0" encoding="utf-8"?>
<!-- Generator: Adobe Illustrator 25.0.1, SVG Export Plug-In . SVG Version: 6.00 Build 0)  -->
<svg version="1.1" id="Layer_1" xmlns="http://www.w3.org/2000/svg" xmlns:xlink="http://www.w3.org/1999/xlink" x="0px" y="0px"
	 viewBox="0 0 24 24" style="enable-background:new 0 0 24 24;" xml:space="preserve">
<style type="text/css">
	.st0{fill:#2E9A66;}
</style>
<path class="st0" d="M19,6.7c0,4.7-4.2,7.1-4.2,12.3H9.2C9.2,13.8,5,11.4,5,6.7C5,2.4,8.5,0,12,0S19,2.4,19,6.7z M14.2,20H9.8
	c-0.3,0-0.5,0.2-0.5,0.5S9.5,21,9.8,21h4.5c0.3,0,0.5-0.2,0.5-0.5S14.5,20,14.2,20z M14.5,22h-5l1.5,1.7c0.2,0.2,0.5,0.3,0.8,0.3
	h0.6c0.3,0,0.6-0.1,0.8-0.3C13,23.7,14.5,22,14.5,22z"/>
</svg>
