<?xml version="1.0" encoding="utf-8"?>
<!-- Generator: Adobe Illustrator 25.0.1, SVG Export Plug-In . SVG Version: 6.00 Build 0)  -->
<svg version="1.1" id="Layer_1" xmlns="http://www.w3.org/2000/svg" xmlns:xlink="http://www.w3.org/1999/xlink" x="0px" y="0px"
	 viewBox="0 0 360 360" style="enable-background:new 0 0 360 360;" xml:space="preserve">
<path style="fill-rule:evenodd;clip-rule:evenodd;fill:#FFFFFF;" d="M88.2,88.5c8.8,7.1,12.1,6.6,28.5,5.5l155.2-9.3
	c3.3,0,0.6-3.3-0.5-3.8l-25.8-18.6c-4.9-3.8-11.5-8.2-24.1-7.1L71.2,66c-5.5,0.5-6.6,3.3-4.4,5.5L88.2,88.5z M97.5,124.7V288
	c0,8.8,4.4,12.1,14.3,11.5l170.5-9.9c9.9-0.5,11-6.6,11-13.7V113.7c0-7.1-2.7-11-8.8-10.4l-178.2,10.4
	C99.7,114.3,97.5,117.5,97.5,124.7L97.5,124.7z M265.9,133.4c1.1,4.9,0,9.9-4.9,10.4l-8.2,1.6V266c-7.1,3.8-13.7,6-19.2,6
	c-8.8,0-11-2.7-17.5-11l-53.7-84.4v81.6l17,3.8c0,0,0,9.9-13.7,9.9l-37.8,2.2c-1.1-2.2,0-7.7,3.8-8.8l9.9-2.7V154.8l-13.7-1.1
	c-1.1-4.9,1.6-12.1,9.3-12.6l40.6-2.7l55.9,85.5v-75.6l-14.3-1.6c-1.1-6,3.3-10.4,8.8-11L265.9,133.4z M58.6,51.3l156.3-11.5
	c19.2-1.6,24.1-0.5,36.2,8.2L301,83c8.2,6,11,7.7,11,14.2v192.3c0,12.1-4.4,19.2-19.7,20.3l-181.5,11c-11.5,0.5-17-1.1-23-8.8
	l-36.7-47.7c-6.6-8.8-9.3-15.3-9.3-23V70.4C41.6,60.6,46,52.3,58.6,51.3z"/>
</svg>
