<?xml version="1.0" encoding="utf-8"?>
<!-- Generator: Adobe Illustrator 25.0.1, SVG Export Plug-In . SVG Version: 6.00 Build 0)  -->
<svg version="1.1" id="Layer_1" xmlns="http://www.w3.org/2000/svg" xmlns:xlink="http://www.w3.org/1999/xlink" x="0px" y="0px"
	 viewBox="0 0 531 552" style="enable-background:new 0 0 531 552;" xml:space="preserve">
<path style="fill-rule:evenodd;clip-rule:evenodd;fill:#FFFFFF;" d="M265.5,35.3c-136.3,0-246.7,110.5-246.7,246.8
	c0,109,70.7,201.5,168.8,234.1c12.3,2.3,16.8-5.4,16.8-11.9c0-5.9-0.2-21.4-0.3-42c-68.6,14.9-83.1-33.1-83.1-33.1
	c-11.2-28.5-27.4-36.1-27.4-36.1c-22.4-15.3,1.7-15,1.7-15c24.8,1.7,37.8,25.4,37.8,25.4c22,37.7,57.8,26.8,71.8,20.5
	c2.2-15.9,8.6-26.8,15.7-33c-54.8-6.2-112.4-27.4-112.4-122c0-26.9,9.6-49,25.4-66.2c-2.5-6.2-11-31.3,2.4-65.3
	c0,0,20.7-6.6,67.9,25.3c19.7-5.5,40.8-8.2,61.8-8.3c21,0.1,42.1,2.8,61.8,8.3c47.1-31.9,67.8-25.3,67.8-25.3
	c13.5,34,5,59.1,2.5,65.3c15.8,17.2,25.4,39.3,25.4,66.2c0,94.8-57.7,115.7-112.7,121.8c8.9,7.6,16.8,22.7,16.8,45.7
	c0,33-0.3,59.6-0.3,67.7c0,6.6,4.4,14.3,17,11.9c98-32.7,168.6-125.1,168.6-234.1C512.2,145.8,401.8,35.3,265.5,35.3z"/>
</svg>
